<?xml version="1.0" encoding="UTF-8"?>
<svg version="1.1" viewBox="0 0 900 900" width="1280" height="1280" xmlns="http://www.w3.org/2000/svg">
<path transform="translate(0)" d="m0 0h900v900h-900z" fill="#FEFDFD"/>
<path transform="translate(292,14)" d="m0 0h56l3 1 6 9 7 18 5 3 16 6 8 4h8l18-8h9l9 7 4 4v2l3 1 5 6 17 17 4 6-1 9-8 18v6l3 5v2l333 1 17 4 16 8 9 7 9 10 9 15 5 15 1 6v444l-4 16-7 14-7 9-9 9-10 7-13 6-12 3-14 1h-197v69h88l17 4 16 8 13 12 6 10 4 10 1 6v52l-3 5-4 4-4 1h-103l-6-1v-1l59-1 3-1-10-1 4-2 4-1-4-1v-4l-23-4-27-1-9-2-20-1-11-1-8-2v-1l-41-1v-1l39-1 135-1v-30l-4-10-8-7-8-4-6-2-8-1v-1l-76-1-26-1v-5l4-3-10-4-5-1-19-3-17-2-11-1-4-1v-2h-9v-1l49-1-210-1 1-2h222v-24l-1-43-5-1 3-2h-25l-7-1-5-2-7-1v-2l-5-2-4 1-2-1-1-3-3-1-12-1-25-3-10-1-14-2v-1l7-2 6-3h111v-1l74-1 160-1 10-3 12-7 9-10 5-11 2-11v-417l-1-21-5-13-9-10-10-7-12-4-7-1-296-1 5 5 3 4 2 13 288 1 9 3 5 5 4 5 2 5 1 40-1 351-4 6-6 4h-703l-7-4-1-3h-2l-1-4-1-365 1-27 4-6 7-7 4-2 35-1-1-5v-7l4-7 3-3h-35l-12 2-12 6-8 7-7 11-3 9h-2l-3 15-1 33-2 27-1 7-3 1-3-4-1 3h-2l-2 2-1-11-1-4-2-2-2-21-2-9-1-27-1-10 4-16 7-14 9-11 7-7 11-7 14-6 12-3 74-1 4-7v-7l-5-11-3-8v-9l7-9 6-5 1-2h2l2-4 8-8h2l2-4 10-8 2-1h8l19 8 5 1 9-4 12-5 10-4 7-19 4-6z" fill="#FEFDFD"/>
<path transform="translate(292,14)" d="m0 0h56l3 1 6 9 7 18 5 3 16 6 8 4h8l18-8h9l9 7 4 4v2l3 1 5 6 17 17 4 6-1 9-8 18v6l3 5v2l333 1 17 4 16 8 9 7 9 10 9 15 5 15 1 6v444l-4 16-7 14-7 9-9 9-10 7-13 6-12 3-14 1h-197v69h88l17 4 16 8 13 12 6 10 4 10 1 6v52l-3 5-4 4-4 1h-103l-6-1v-1l59-1 3-1-10-1 4-2 4-1-4-1v-4l-23-4-27-1-9-2-20-1-11-1-8-2v-1l-41-1v-1l39-1 135-1v-30l-4-10-8-7-8-4-6-2-8-1v-1l-76-1-26-1v-5l4-3-10-4-5-1-19-3-17-2-11-1-4-1v-2h-9v-1l49-1-210-1 1-2h222v-24l-1-43-5-1 3-2h-25l-7-1-5-2-7-1v-2l-5-2-4 1-2-1-1-3-3-1-12-1-25-3-10-1-14-2v-1l7-2 6-3h111v-1l74-1 160-1 10-3 12-7 9-10 5-11 2-11v-417l-1-21-5-13-9-10-10-7-12-4-7-1-296-1 5 5 3 4 2 13 288 1 9 3 5 5 4 5 2 5 1 40-1 351-4 6-6 4h-703l-7-4-1-3h-2l-1-4-1-365 1-27 4-6 7-7 4-2 35-1-1-5v-7l4-7 3-3h-35l-12 2-12 6-8 7-7 11-3 9h-2l-3 15-1 33-2 27-1 7-3 1-3-4-1 3h-2l-2 2-1-11-1-4-2-2-2-21-2-9-1-27-1-10 4-16 7-14 9-11 7-7 11-7 14-6 12-3 74-1 4-7v-7l-5-11-3-8v-9l7-9 6-5 1-2h2l2-4 8-8h2l2-4 10-8 2-1h8l19 8 5 1 9-4 12-5 10-4 7-19 4-6zm-175 196-1 1v362h667l1-3v-224l-1-135h-279l-1 1-1 12-5 6-12 6-11 4-3 4-5 15-6 11v6l9 21-1 7-4 7-5 5-13 12-10 10v2l-4 2-3 2h-12l-18-8-7 1-15 7-13 5-4 10-5 12-5 6-5 2h-30l-22-1-5-3-7-14-4-10-4-3-17-7-9-5h-6l-19 8-6 1-8-3-26-26h-2l-2-4-6-9v-8l8-19v-7l-8-17-4-11-7-3-16-7-5-4-2-4-1-12z" fill="#FB7026"/>
<path transform="translate(109,159)" d="m0 0h36l-2 4-3 3-2 4v12l-3 1-32 1-6 4-7 8-1 2-1 29 1 367h2l5 5 3 1h703l7-5 2-4 1-354-1-37-4-8-3-3v-2l-5-2-7-2-288-1-1-1-2-13-4-5-3-2v-2h296l14 3 10 5 12 11 4 6 4 11 1 21v417l-3 14-5 9-9 10-14 8-8 2-160 1-38 1v1h-147l-6 3v2l14 2 21 2 14 2h6l3 2v3h6l1-2 4 4v2h8l5 2 7 1h24l2 2 1 2 1 43v24l-1 1h-222l-1 1h224v1l-11 1h-16l-27 1 4 2 23 2 17 3 11 1 7 4 5 1-3 4h-2v5h42l64 1 4 2 11 4 9 7 4 5 3 8v30l-1 1-135 1 9 1-2 2 14 2 20 1 12 2 24 1 23 4 1 3-1 2 7 1v1l-7 1 7 1-1 2-3 1-59 1h-442l-6-5-2-7v-55l5-12 8-11 9-8 10-6 14-5 16-2h83l-1-68-6-1-203-1-11-2-16-8-6-4-10-9-7-8-6-10-5-14-2-11-1-329v-102l1-11h1l1 16 1 23 2 7 2 20h2l1 6v6l2 2 2 1 1-4 1 1 2-2 2 3 2-15 2-46 1-10 2-9 2-1 4-10 8-11 10-8 9-4z" fill="#FDA019"/>
<path transform="translate(109,159)" d="m0 0h36l-2 4-3 3-2 4v12l-3 1-32 1-6 4-7 8-1 2-1 29 1 367h2l5 5 3 1h703l7-5 2-4 1-354-1-37-4-8-3-3v-2l-5-2-7-2-288-1-1-1-2-13-4-5-3-2v-2h296l14 3 10 5 12 11 4 6 4 11 1 21v417l-3 14-5 9-9 10-14 8-8 2-160 1h-528l-13-3-11-6-9-8-8-14-2-9-1-14v-316l1-105 2-11 6-12 6-7 11-8 11-4z" fill="#FEFDFD"/>
<path transform="translate(307,42)" d="m0 0h27l6 17 5 8 8 3 16 5 16 8 9 4 8-1 14-7h5l16 16v6l-5 10-2 7 1 9 8 15 7 19 4 11 16 8 8 3 1 3v23l-2 2-16 6-6 3-3 5-7 21-11 23 1 8 6 16v5l-6 7-9 9-7-1-18-7-6 1-25 12-19 6-5 5-8 20-2 1h-24l-3-3-8-19-4-4-26-9-19-9h-7l-13 5-4 2h-5l-8-7-7-8-1-1v-6l5-10 2-5v-10l-10-19-7-18-3-9-10-5-9-4-5-2-1-4 1-23 8-3 14-6 4-6 7-20 8-16 3-7v-9l-7-15 1-7 15-15 7 1 10 5 6 2h6l18-10 29-10 5-8 4-9z" fill="#FEFDFD"/>
<path transform="translate(237,801)" d="m0 0h87l348 1 11 2 9 4 8 6 4 5 3 8v30l-1 1h-513l-1-1 1-31 2-6 5-7 10-7 11-4z" fill="#FEFDFD"/>
<path transform="translate(307,103)" d="m0 0h24l15 3 16 6 14 9 10 9 9 10 9 14 6 15 4 17v22l-4 17-5 12-7 12-10 13-10 9-14 9-11 5-15 4-8 1h-20l-16-3-17-7-16-10-13-13-10-15-7-15-4-16-1-9v-13l3-17 5-14 8-14 8-10 11-11 13-9 14-6 14-4z" fill="#FB7026"/>
<path transform="translate(161,403)" d="m0 0h583l7 3 4 5 1 3v8l-4 6-4 3-5 1h-582l-8-3-5-7v-9l4-6 4-3z" fill="#FB7026"/>
<path transform="translate(156,520)" d="m0 0h585l6 3 4 6 1 9-4 7-5 3-4 1h-580l-8-2-5-5-2-3v-9l6-8z" fill="#FB7026"/>
<path transform="translate(155,462)" d="m0 0h589l5 3 4 5 1 3v7l-4 6-6 4h-588l-6-4-4-6v-8l3-5z" fill="#FB7026"/>
<path transform="translate(88,212)" d="m0 0h1l1 108h2l1 10 2-8 2-4 1-5 1-1-1-3 4-8v-7l7 4 2 10 1-16 1-67 2-13h1v361h431l-1 2h-69l-137 1-3 3h-5v2l3-1 12 2 30 3 4 2h6l1 6h6l2-2 2 3 9 4 248 1v1l-556 1-7-4-1-3h-2l-1-4-1-365z" fill="#FDA019"/>
<path transform="translate(338,704)" d="m0 0h217l6 2 1 43v24l-1 1h-222l-1-1z" fill="#FEFDFD"/>
<path transform="translate(314,131)" d="m0 0h11l16 3 14 7 8 6 6 5 7 10 7 15 3 14-1 16-3 11-8 16-9 10-7 6-11 6-11 4-10 2h-12l-17-4-12-6-9-7-8-8-8-14-5-16v-21l5-16 5-9 7-9 7-7 11-7 12-5z" fill="#FEFDFD"/>
<path transform="translate(65,194)" d="m0 0h1l-1 113v329l-1-3h-2v2l-4-2v5l-2-2-6-11-4-4-3-1-4-15-1-28-1-97-1-142v-131l1-11h1l1 16 1 23 2 7 2 20h2l1 6v6l2 2 2 1 1-4 1 1 2-2 2 3 2-15 2-46 1-10 2-9z" fill="#FDA019"/>
<path transform="translate(193,858)" d="m0 0h378v1l9 1-2 2 14 2 20 1 12 2 24 1 23 4 1 3-1 2 7 1v1l-7 1 7 1-1 2-3 1-59 1h-357v-1l44-2-3-7v-3l-21-3-21-2-11-2v2l-11-1-6-2 2-3-38-1z" fill="#FD9F19"/>
<path transform="translate(207,777)" d="m0 0h6l-3 2-5 3h-2v2l-2 1-1 2h22l17 3 3 2 1 4-3 1v2l77 1v1l-80 1-16 1-11 4-8 6h-2l-2 4-3 4-1 5-1 31v3h43v1l-6 2 5 2 11 2v-2l11 1 30 3 12 3 3 9 2 2-46 2h-85l-6-5-2-7v-55l5-12 8-11 9-8 10-6z" fill="#FEBC1B"/>
<path transform="translate(152,521)" d="m0 0h424v1l-302 1-2 1v2h-2v2l22 3 21 3 5 2 1 5 3-3h3l1 4 17 3h6l3 1 5-1v1l231 1-2 2h-427l-8-2-5-5-2-3v-9l6-8z" fill="#FDA019"/>
<path transform="translate(672,243)" d="m0 0h8l10 7 14 12 13 11 11 9 14 12 4 5 1 3v7l-4 6-7 7-11 9-15 13-11 9-14 11-6 3h-6l-8-5-3-5v-8l4-6 7-7 11-9 14-12 11-9-2-4-10-8-28-24-6-7-1-3v-7l4-6z" fill="#FB7027"/>
<path transform="translate(569,243)" d="m0 0h7l6 3 4 4 2 6-1 6-3 5-8 7-10 9-11 9-13 11h-2l2 5 14 11 13 12 14 11 4 6 1 7-5 8-4 3-8 1-8-4-17-14-10-9-10-8-21-18-2-4v-10l4-6 10-9 22-18 10-9 14-11z" fill="#FB7027"/>
<path transform="translate(638,226)" d="m0 0h9l7 6 2 4v11l-7 25-15 55-12 45-5 9-5 3h-8l-7-4-4-7 2-13 13-50 16-58 4-16 5-8z" fill="#FB7027"/>
<path transform="translate(155,462)" d="m0 0h244v1l-8 1-161 1-15 1-4 1h-10v2l10 1 9 1 26 3 7 1 3 3h2v2h4l4-4 8 1 3 2-1 5 2 1-2 1 7 1 46 1 175 1v1h-348l-6-4-4-6v-8l3-5z" fill="#FD9F19"/>
<path transform="translate(37,480)" d="m0 0h1l1 102 1 23 3 11v4l5 1 5 8 4 6 1-3 4 3v-2h2l5 15v5h-2l3 8 3 5h-2l-2-2 5 6 8 6 9 4 8 3 15 2 17 5h11l7 3 9 3 7 1-2 2 16 2h13l11 1v1l-81 1h-22l-11-2-16-8-6-4-10-9-7-8-6-10-5-14-2-11z" fill="#FEBC1A"/>
<path transform="translate(156,404)" d="m0 0h246v1l-199 1v1l-10 1-5 2-1 2h2l1 2 9 1 4 2 3 3 6 2v2l14 2 11 2 1 1 227 1v1l-304 1-8-3-5-7v-9l4-6z" fill="#FDA019"/>
<path transform="translate(64,203)" d="m0 0h1v104l-1 72h-1l-1-127 1-11z" fill="#FB7027"/>
<path transform="translate(241,306)" d="m0 0h7l1 2-9 1-14 6-4 1 2-1v-2l13-6z" fill="#FD931C"/>
</svg>
