<?xml version="1.0" encoding="UTF-8"?>
<svg version="1.1" viewBox="0 0 900 900" width="1280" height="1280" xmlns="http://www.w3.org/2000/svg">
<path transform="translate(0)" d="m0 0h900v900h-900z" fill="#D24360"/>
<path transform="translate(0)" d="m0 0h900v900h-900zm438 10-24 1-33 4-31 6-29 8-24 8-20 8-24 11-21 11-30 19-16 12-14 11-11 9-17 16-24 24-20 25-14 19-16 26-9 16-8 16-10 22-12 33-9 31-6 29-4 30-2 26v36l2 27 3 24 6 31 7 27 7 21 11 28 14 29 12 22 10 15 12 17 13 17 8 10 11 12 2 3h2l2 4 19 19 8 7 14 12 20 15 12 8 19 12 21 12 27 13 27 11 27 9 28 7 31 6 25 3 15 1h50l33-3 26-4 27-6 29-9 24-9 21-9 23-11 20-12 22-14 14-10 17-14 11-9 15-14 18-18 9-11 12-14 12-16 10-15 13-21 9-16 11-23 8-19 9-25 7-23 6-26 4-21 4-41v-50l-4-40-6-33-4-17-7-24-13-34-13-28-13-24-18-27-13-18-11-14-10-11-7-8-26-26-11-9-16-13-18-13-25-16-22-12-16-8-28-12-23-8-20-6-24-6-30-5-27-3-20-1z" fill="#FDFDFD"/>
<path transform="translate(438,10)" d="m0 0h26l20 1 34 4 32 6 29 8 21 7 29 12 20 9 22 12 25 16 17 12 16 13 10 8 13 12 24 24 9 11 7 8 12 16 14 20 12 19 13 24 13 28 13 35 7 24 7 36 3 20 3 31v50l-3 33-2 2-1-2-3 3h-3v15h-3l-1 4h-3l-2-4-3 4v6 2l1 5-2 4h-2v6l-3 2-5-1 1-4-5-5-3-6-2-1-1 3-1-3 3-5-1-1v3h-4l-3 1-1-5-3-3-3-1v3l-3 1 1-4-8 2v-5l4-1-3-1-2-3-5 5h-2l-1 5h-6l2-4h2l1-2h-5v2h-5l-3-4-2-1v-2l-2-1-3-3-1-4-3-3-2-1v-2h-2l-1-3-3-1-1 3-5 3-4-4v-7l-5-2-5-4-4-2v-3h-2v-3l-5-1v-2l-3-1v-3l-2-1 1-3-5 1-4-2v-3l2-1v-3l-5-2v-2l-5 1-2 1-2-3v-7l2-1-5-3h-5l-4-2-5-2-1-4h-2l-1 2-1-2-3-1 3-6-3 1-1-2-1 2-7-4-3-8-2-1v-2h-5l-4-5-4-1-1-4v-5l-1-4-3 1-2-4v-3h-3l-1-4-4-1-1-6-2-3-3-1-2-4-4-1v-5l-3 1-3-3 1-2-4-1v-2l-4-1-3-4v-2l-4-1-3-3v-3h2l-2-2-3-1v-2h-5l-4-4v-3h-2l-1-4-2-2-5-2-5-5 1-10-7-4-3-2v-3h-5v-4h2l-2-5h-3v-2h-2l-1-4-4 2-3-4v-4h2l-3-5-2-3-3-3-1-4-4 1-3-8v-10l-3-5-1-9-1-1-1-7v-9h-2l-1-5-4-2-2-7-2-4-3-4-4-5-4-8-6-5-4-1-2-1v-2h-2v-2l-4-2-9-4-5-2-4-3-10-2h-7l-8-1-5 1h-4l7 1v2h3l1-2 2 3 6-1 4 2v2l5 1 2 4-7-1-18-4-17-1 2-4 2-2-9-1v2l-8 1v-3l4-2h3v-2l-6 1v-3h-4l-1 2-4 1-5-4 1-5 6-2-4-2 1-2-1-4 6 1v-4h-8l-3-2-1-4 2-8-4 1-1 1h-5l2-7-4-1-1 2-3-1v-2l-10 1-6-5-1-5-3-1-1-6 2-2h-6l1-5 1-4-5-5-4-1-2-1v-2h-3l-2-9-6-2h-2l1-6h5v-3l-1 2-4-2v-3l-3 5-3 1-3-1v-2h2l2-6 3-1v-3l5-1v-3-2l8-1h9v-2l8-4h2l1-2 7-2 1-1 10-1 4-3 2 1 1-2h6l1-4-5-4h-18l-14 2-10 1v-2l25-4 19-2z" fill="#EC5F39"/>
<path transform="translate(443,169)" d="m0 0h24l15 4 16 8 11 8 6 5 9 12 7 15 3 12v19l-2 13 3 1 1 5v25l-3 8-4 6-8 3-7 1-3 16-5 12-7 10-5 6-1 2-1 21 10 3 44 12 17 6 13 7 12 9 7 10 4 8 3 14 1 33-1 25-1 1-106 1h-39l1 45 13 7 6 7 5 11v12l-1 5 4 2 17 10 22 12 19 11 17 10 7 4h4l5-14 6-10 9-10 7-7 11-7 6-3 5 1 10 7 8 4 10 2h11l13-4 16-10 5 1 12 8 13 12 9 14 5 12 2 9 1 26v46l-2 6-4 2h-152l-6-2-1-5v-63l-6-2-23-13-17-10-26-15-16-9-5-3-5 2-10 6-3 1h-14l-11-4-6-5-5 1-17 10-27 15-42 24-5 3-1 67-1 1-12 1h-146l-4-2-1-4v-68l2-13 4-11 6-11 11-12 9-8 8-5 4-2 5 1 14 9 9 3 7 1h9l12-3 11-7 5-4 7 1 12 8 10 9 8 9 8 16 2 9 8-3 14-8 46-26 15-9 7-5-1-6v-10l6-12 7-7 6-3 6-2 1-46h-131l-14-1-2-5v-50l2-15 7-14 9-10 8-6 11-6 19-7 47-13 8-1-1-20-3-7-9-11-5-11-6-20-10-1-8-9-2-8v-25l2-5v-7l-3-14v-12l3-15 7-14 9-9 10-3 11-2 6-4 7-6 16-7z" fill="#FDFDFD"/>
<path transform="translate(556,26)" d="m0 0 17 1 27 9 29 12 20 9 22 12 25 16 17 12 16 13 10 8 13 12 24 24 9 11 7 8 12 16 14 20 12 19 13 24 13 28 13 35 7 24 7 36 1 5v20l1 3v8 3l1 3v20l-3 1-3-9v-4h-2l-2-5 1-6-5-5v-4l-3-2-5-12 2 6h-3v2h-3l-2-6-2 4-6-4-1 3h-2l-1 3-7-3-2-3v-3l-5-2-1-5-5-1-3 1-3-4v-2h-2l1-3 1-1-1-2h-6l-2-1-2-5-5-4v-6h-2v2l-4 1-2-9h-7v-2h-6l-4-2-1-7 2-5-3 1h-3l-8-2v-2h-2l-1-2-3-1-4-8-3-1-2-6-4-2h-4l-2-3v-4h3l-2-4-7-4-2-2-3-6h-5l-2-6v-2h-2l-3-3-7-4-1-3-2 1v-2l-4-2-1-3-6-4-3-1-1-4h-2v-3l-4-2-2-4 2-2-2-1v-2l-4-2-3-1-4-4-4-2v-2l-5-2-3-6h2v-2l-9-3-5-3v2h-3l-2-6 1-2-5 1-1-2h3l-1-3-9-7-1-2-6-2-1 2-3-3v-3-5l-3 1-4-2-2-9h-3l-3-8-4-4-1 2-3-1-2-4h2l-1-5h-4l-2-5-4-1v-3l-4 1-1-3h-2v-2l-4 1-1-3-4-2v-2l-6-2-4-4v-2l3-2v-3l-4-1 1-4-1-3 1-2-3-1 1 8h-3l-5-1v-2h-2l-2-3 1-8h-5l-2-4-1-5-7-1-4-4-2-8h-6v-2l-3-1v-3h-2v-6l-4-5 4-1-1-4v2h-4l-1-6 1-2h2l-1-2-3-1v-3l-11-3-8-3v-3h-2v-2h-7l-3-2 1-4 7-3 3-1 4 1 2-1 15 2h3v2l7-2 10 2h10l6 1v2h6 2z" fill="#ED692E"/>
<path transform="translate(284,609)" d="m0 0 5 1 9 7 6 5 9 13 4 9 1 5 1 14v57h-138l-3-2v-60l3-16 7-14 11-12 8-6h6l16 8 11 3h16l15-4 12-7z" fill="#D24361"/>
<path transform="translate(611,610)" d="m0 0h5l10 6 13 4 5 1h14l15-4 11-6 1-1 9 1 10 8 8 9 7 14 2 8 1 19v47l-1 4h-140v-64l2-12 7-14 9-11 10-8z" fill="#D24361"/>
<path transform="translate(421,239)" d="m0 0 9 2 9 4 7 2 9 1 38 1 5 2 6 7 2 6 3 1 12 1 3 5 1 4v20l-2 5-3 2-13 1-3 8-4 16-8 16-10 10-9 6-9 3-6 1h-19l-13-5-10-6-7-7-8-14-5-17-2-12-5 1-13-3-1-4v-25l1-3 4-2 11-1 11-6 11-8 6-8z" fill="#D24361"/>
<path transform="translate(387,399)" d="m0 0 5 5 12 19 8 13 4 5h5l3-2 5 1 3 6 2 1v7l-9 35-2 8-3 1h-110l-1-1-1-22v-16l2-16 4-10 9-10 9-6 15-7 23-7z" fill="#D24361"/>
<path transform="translate(510,400)" d="m0 0h7l30 8 20 8 11 7 6 7 5 10 2 9v49h-112l-2-1-11-40v-9l6-8 4-1 4 2h5l16-26z" fill="#D24361"/>
<path transform="translate(446,180)" d="m0 0h14l11 2 11 3 12 6 9 7 7 7 8 13 5 16v14l-3 8-4-1-7-9-6-4-10-3-8-1h-30l-11-2-12-6-8-5-5-1-6 8-3 6-9 10-6 4-7 3h-7l-5-2-1-5v-21l3-11 6-8 5-4 5-2 12-1 9-7 6-5 10-5z" fill="#D24360"/>
<path transform="translate(239,505)" d="m0 0h20l12 4 9 7 7 8 6 12 2 7v14l-3 11-5 10-11 11-12 6-7 2h-18l-12-4-10-7-7-8-5-10-3-11v-13l3-11 4-8 10-11 10-6z" fill="#D24361"/>
<path transform="translate(641,505)" d="m0 0h20l10 3 11 7 7 8 5 9 3 9 1 13-4 16-7 11-8 8-12 6-8 2h-19l-12-5-8-6-7-8-5-10-3-11v-13l3-11 5-9 9-10 9-6z" fill="#D24361"/>
<path transform="translate(239,505)" d="m0 0h20l12 4 9 7 7 8 6 12 2 7v14l-3 11-5 10-11 11-12 6-7 2h-18l-12-4-10-7-7-8-5-10-3-11v-13l3-11 4-8 10-11 10-6zm2 11-11 4-10 9-5 10-1 5v14l3 9 7 9 8 6 7 3h17l9-3 9-7 6-9 3-10v-11l-3-10-8-11-9-6-7-2z" fill="#FDFDFD"/>
<path transform="translate(641,505)" d="m0 0h20l10 3 11 7 7 8 5 9 3 9 1 13-4 16-7 11-8 8-12 6-8 2h-19l-12-5-8-6-7-8-5-10-3-11v-13l3-11 5-9 9-10 9-6zm1 11-12 6-7 7-5 9-2 8v7l3 12 6 9 8 7 9 4 5 1 14-1 9-4 8-7 6-10 2-6v-14l-3-10-6-9-8-6-9-3z" fill="#FDFDFD"/>
<path transform="translate(419,369)" d="m0 0 16 4 7 1h16l17-4 5-1v11l-7 8-16 12-7 4-11-7-18-14-1-1z" fill="#D24361"/>
<path transform="translate(445,568)" d="m0 0h10l7 3 4 4 4 10-1 8-6 8-5 4-3 1h-10l-8-4-6-9-1-2v-9l6-10 5-3z" fill="#D24361"/>
<path transform="translate(449,453)" d="m0 0 4 1 9 29 3 14-1 1-29-1 1-7 9-31z" fill="#D24361"/>
<path transform="translate(410,393)" d="m0 0 7 1 18 14 5 3-2 4-14 9-5 2-9-14-7-11-2-3v-3z" fill="#D24361"/>
<path transform="translate(486,393)" d="m0 0 13 1-2 6-7 12-9 14-4-1-16-11v-3l13-10 10-7z" fill="#D24361"/>
<path transform="translate(449,421)" d="m0 0 6 2 9 7-3 5-6 8h-9l-5-5-5-6 2-4z" fill="#D24361"/>
<path transform="translate(875,339)" d="m0 0h1l7 36 1 9h-2l-3-12-4-25-1-5z" fill="#E35646"/>
<path transform="translate(395,13)" d="m0 0h10l-1 2-24 3-10 1v-2z" fill="#E0524B"/>
<path transform="translate(884,386)" d="m0 0h1l2 18v6l-2-1-1-7-2-2 1-5z" fill="#E25448"/>
<path transform="translate(847,547)" d="m0 0 4 1v5l-5 1-2-2z" fill="#ED6039"/>
</svg>
