<?xml version="1.0" encoding="UTF-8"?>
<svg version="1.1" viewBox="0 0 900 900" width="1280" height="1280" xmlns="http://www.w3.org/2000/svg">
<path transform="translate(0)" d="m0 0h900v900h-900z" fill="#F19242"/>
<path transform="translate(298,403)" d="m0 0h71l240 1 8 7 3 6v245l-1 49-4 6-5 4-7 1h-307l-7-2-6-5-2-4-1-9-1-154v-129l5-10 7-5z" fill="#F19242"/>
<path transform="translate(409,177)" d="m0 0h29l18 3 18 5 19 8 15 9 12 9 10 9 10 10 9 12 8 13 8 16 7 22 3 14h3l13-6 19-5 8-1h21l20 4 20 8 15 9 14 12 9 11 7 11 7 14 5 17 2 15v15l-3 19-7 19-7 13-9 12-14 14-15 10-15 7-17 5-10 2h-9l-1-14-1-81-3-9-9-10-8-4-5-1h-299l-15 1-12 6-7 9-2 5-1 7-1 91h-9l-19-4-16-6-11-6-11-8-12-11-11-15-9-17-6-19-2-11v-20l3-18 5-15 7-14 10-14 16-16 15-10 15-7 19-5 9-1h14l2-9 8-21 11-20 10-13 14-15 12-10 15-10 21-10 20-6z" fill="#FDFDFD"/>
<path transform="translate(498)" d="m0 0h402v412h-1l-4-29-5-25-6-25-8-27-9-25-11-25-11-22-13-22-14-21-14-19-11-13-9-11-34-34-11-9-15-12-15-11-15-10-18-11-18-10-29-14-20-8-36-12-28-7-32-6-15-3z" fill="#FDFDFD"/>
<path transform="translate(899,489)" d="m0 0h1v411h-403l4-2 34-6 31-7 35-11 30-12 29-14 25-14 24-16 18-13 13-11 11-9 8-8 8-7 16-17 9-10 9-11 15-20 16-24 12-21 12-23 9-20 11-29 9-30 6-25 7-41z" fill="#FDFDFD"/>
<path transform="translate(0,494)" d="m0 0 2 4 6 37 6 27 7 24 9 26 13 30 11 22 13 23 8 12 13 19 10 12 7 9 12 14 15 16 11 11 8 7 9 7v2l4 2 14 11 18 13 22 14 18 10 19 10 33 14 36 12 32 8 45 8 3 2h-404z" fill="#FDFDFD"/>
<path transform="translate(0)" d="m0 0h400l-2 2-30 5-31 7-30 9-25 9-27 12-20 10-24 14-15 10-14 10-13 10-14 12-10 9-12 11-13 13-7 8-12 14-13 17-15 22-12 19-13 25-8 16-10 24-7 20-7 23-7 29-6 33-2 9h-1z" fill="#FDFDFD"/>
<path transform="translate(298,403)" d="m0 0h71l240 1 8 7 3 6v245l-1 49-4 6-5 4-7 1h-307l-7-2-6-5-2-4-1-9-1-154v-129l5-10 7-5zm-5 78-1 1v220l1 7 2 1 20 1h281l10-1 1-1v-228z" fill="#FDFDFD"/>
<path transform="translate(463,519)" d="m0 0h8l5 3 3 5v9l-23 86-10 36-4 10-5 4-9-1-6-4-1-2v-9l16-61 19-69 5-6z" fill="#FDFDFD"/>
<path transform="translate(495,544)" d="m0 0 6 1 9 7 35 35 3 4v8l-4 6-38 38-6 4-5-1-6-4-4-5v-6l6-8 24-24 2-5-30-30-3-6 2-6 5-6z" fill="#FDFDFD"/>
<path transform="translate(398,545)" d="m0 0h8l6 4 3 6-1 7-9 10-22 22 1 4 28 28 3 6-1 7-5 5-4 2h-6l-6-4v-2l-4-2-34-34-3-6 1-7 7-9 35-35z" fill="#FDFDFD"/>
<path transform="translate(555,436)" d="m0 0h26l2 4-1 8-1 1h-24l-2-1-1-8z" fill="#F19242"/>
<path transform="translate(508,436)" d="m0 0h25l2 2v9l-2 2h-22l-4-2v-10z" fill="#F19242"/>
</svg>
